<svg width="360" height="180" xmlns="http://www.w3.org/2000/svg"><style>.red{fill:#f99}.yellow{fill:#ff9}.green{fill:#9f9}.teal{fill:#9ff}.blue{fill:#99f}.purple{fill:#f9f}.black,text{fill:#000}ellipse,line,path,rect{stroke-width:2;stroke:#000}text{text-anchor:middle;font-family:Helvetica,Arial,sans-serif;font-size:22px}.white,ellipse{fill:#fff}</style><path d="M30 30h300"/><g transform="translate(30 30)"><ellipse ry="20" rx="20"/><text y="7">15</text></g><g transform="translate(210 30)"><path d="M0 0v60"/><path d="M0 0l-60 60"/><path d="M0 0l-120 60"/><ellipse ry="20" rx="20"/><text y="7">5</text><g transform="translate(0 60)"><ellipse ry="20" rx="20"/><text y="7">8</text></g><g transform="translate(-60 60)"><path d="M0 0v60"/><ellipse ry="20" rx="20"/><text y="7">6</text><g transform="translate(0 60)"><ellipse ry="20" rx="20"/><text y="7">24</text></g></g><g transform="translate(-120 60)"><path d="M0 0v60"/><ellipse ry="20" rx="20" class="black"/><text y="7" class="white">12</text><g transform="translate(0 60)"><ellipse ry="20" rx="20"/><text y="7">13</text></g></g></g><g transform="translate(270 30)"><ellipse ry="20" rx="20"/><text y="7">9</text></g><g transform="translate(330 30)"><path d="M0 0v60"/><ellipse ry="20" rx="20" class="red"/><text y="7">2</text><g transform="translate(0 60)"><ellipse ry="20" rx="20"/><text y="7">4</text></g></g></svg>